<?xml version="1.0" encoding="utf-8"?>
<!-- Generator: Adobe Illustrator 16.0.3, SVG Export Plug-In . SVG Version: 6.00 Build 0)  -->
<!DOCTYPE svg PUBLIC "-//W3C//DTD SVG 1.1//EN" "http://www.w3.org/Graphics/SVG/1.1/DTD/svg11.dtd">
<svg version="1.1" id="レイヤー_1" xmlns="http://www.w3.org/2000/svg" xmlns:xlink="http://www.w3.org/1999/xlink" x="0px"
	 y="0px" width="301.436px" height="160.572px" viewBox="0 0 301.436 160.572" enable-background="new 0 0 301.436 160.572"
	 xml:space="preserve">
<path fill="#59b9f9" d="M18.013,145.976c-3.229,10.339-5.689,15.186-7.379,14.54c-0.616-0.387-0.692-1.162-0.23-2.325
	c0.306-0.389,0.421-0.615,0.345-0.68c-0.079-0.066-0.345,0.03-0.807,0.291c-0.617,0.389-1.001,0.903-1.153,1.552
	c-0.155,0.646-0.311,0.999-0.461,1.065c-0.155,0.064-1.153-0.097-2.998-0.484c-1.233-0.387-2.461-1.099-3.69-2.133
	c-1.232-1.035-1.769-1.874-1.615-2.52c0.152-0.389,0.692-2.327,1.615-5.816c0.306-0.776,1.344-3.912,3.113-9.403
	c1.766-5.496,3.495-10.891,5.188-16.189c1.689-5.299,2.612-8.076,2.767-8.337c0.152-0.903,0.422-1.581,0.808-2.036
	c0.382-0.45,0.768-0.999,1.153-1.647c0.381-0.646,0.727-1.745,1.037-3.296c0.768-3.36,2.458-8.271,5.074-14.734
	c1.844-4.394,2.767-7.077,2.767-8.047c0-0.97-0.846-1.581-2.536-1.841c-2.306-0.516-3.885-1.164-4.728-1.939
	c-0.847-0.775-1.729-2.453-2.652-5.041c-0.771-2.454-1.037-4.005-0.807-4.654c0.231-0.646,1.114-0.969,2.653-0.969
	c0.767,0,1.689-0.193,2.767-0.582c1.074-0.388,2.075-0.775,2.998-1.164c0.923-0.388,2.382-1.096,4.382-2.132l-3.229,2.521
	c-1.693,1.293-2.5,1.972-2.422,2.035c0.076,0.066,0.729-0.03,1.96-0.291c2.306-0.646,3.957-1.164,4.958-1.551
	c0.998-0.387,1.766-0.873,2.306-1.454c0.537-0.582,0.958-1.518,1.268-2.811c5.996-17.45,8.764-26.368,8.302-26.756
	c-0.155-0.127-1.844,0.518-5.073,1.939c-2.155,0.775-3.729,1.23-4.728,1.357c-1.001,0.13-2.19-0.064-3.574-0.582
	c-1.078-0.388-2.075-1.096-2.998-2.133c-0.923-1.033-1.614-2.26-2.076-3.684c-0.46-1.42-0.692-2.972-0.692-4.653
	c0-0.775,0.151-1.324,0.462-1.647c0.306-0.321,0.883-0.549,1.729-0.679c0.843-0.127,1.845-0.257,2.999-0.388
	c1.153-0.127,2.843-0.387,5.073-0.775c2.227-0.388,4.572-0.969,7.034-1.745c3.534-1.164,5.725-2.327,6.572-3.49
	c0.843-1.163,1.268-3.617,1.268-7.367c0-1.551,0.191-2.424,0.577-2.617c0.381-0.194,1.574-0.161,3.574,0.097
	c7.379,1.036,11.375,2.651,11.991,4.847c0.308,1.164,0.843,1.778,1.615,1.841c0.768,0.067,2.918-0.224,6.457-0.872
	c1.845-0.257,3.42-0.484,4.727-0.679c1.305-0.194,3.229-0.484,5.765-0.873c2.537-0.387,5.379-0.775,8.532-1.163
	c3.15-0.388,6.493-0.776,10.031-1.163c3.535-0.388,6.688-0.806,9.455-1.26c2.768-0.452,4.573-0.806,5.419-1.066
	c0.843-0.258,1.69-0.418,2.537-0.485c0.843-0.063,1.458-0.03,1.844,0.097c0.381,0.13,1.189,0.455,2.421,0.969
	c2.767,1.293,3.689,2.069,2.767,2.327c-0.922,0.26-0.692,0.906,0.692,1.938c0.922,0.518,1.419,0.97,1.499,1.357
	c0.076,0.388-0.271,0.97-1.038,1.745c0,0.13-0.08,0.26-0.23,0.388c-0.771,0.906-1.769,1.521-2.998,1.842
	c-1.233,0.324-5.073,1.002-11.53,2.036c-15.836,2.456-32.363,5.234-49.579,8.336c0-0.127-0.194,0.388-0.576,1.551
	c-0.386,1.163-0.922,2.684-1.614,4.556c-0.692,1.875-1.424,3.944-2.191,6.204c-0.771,2.263-1.539,4.526-2.306,6.786
	c-0.771,2.263-1.498,4.362-2.19,6.301c-0.692,1.939-1.232,3.556-1.614,4.847c-0.386,1.293-0.577,2.005-0.577,2.132
	c0,0.262,1.154,0.195,3.458-0.193c2.306-0.388,4.764-0.806,7.38-1.26c2.612-0.452,4.15-0.549,4.612-0.292
	c0.612,0.261,0.922,0.067,0.922-0.581c0-0.646,0.767-0.97,2.306-0.97c1.384,0,4.187-0.354,8.417-1.066
	c4.227-0.709,8.302-1.291,12.222-1.746c3.92-0.451,6.493-0.417,7.725,0.097l2.767,0.776c-0.31,0-0.771,0-1.384,0
	c-0.615,0-1.308,0.033-2.075,0.097c-0.771,0.066-2,0.26-3.689,0.582c-1.694,0.324-3.69,0.745-5.996,1.26
	c-3.844,0.775-5.844,1.357-5.995,1.745c-0.155,0.13,0.076,0.324,0.691,0.582c1.229,0.26,2.998,0.097,5.304-0.485
	c2.306-0.582,3.841-0.873,4.612-0.873c1.074,0,0.768,0.324-0.922,0.969c-3.384,1.164-6.227,1.812-8.533,1.939
	c-1.693,0-1.924,0.131-0.692,0.387c0.462,0.131,0.998,0.26,1.615,0.388c1.383,0.389,2.075,0.649,2.075,0.776
	c-1.078,0.131-1.769,0.484-2.075,1.067c-0.311,0.581-1.002,0.872-2.075,0.872c-0.771,0-1.348,0.131-1.73,0.389
	c-0.385,0.26-0.576,0.484-0.576,0.678c0,0.193-0.194,0.387-0.577,0.581c-0.385,0.195-0.886,0.165-1.499-0.097
	c-1.231-0.127-1.769,0-1.614,0.389c0.151,0.13,0.036,0.323-0.346,0.582c-0.386,0.26-1.077,0.552-2.076,0.873
	c-1.001,0.323-2.115,0.648-3.343,0.969c-1.232,0.324-2.847,0.679-4.843,1.066c-2,0.388-3.845,0.776-5.535,1.164
	c-1.693,0.388-3.919,0.873-6.688,1.454c-2.767,0.581-5.228,1.067-7.378,1.454l-2.306,6.592c-0.923,2.457-2.461,6.107-4.612,10.954
	c-2.155,4.848-4.612,11.118-7.38,18.808C25.624,122.938,22.164,133.179,18.013,145.976z M75.432,63.963
	c0-0.515-0.04-0.775-0.115-0.775c-0.079,0-0.27,0.13-0.576,0.387c-0.311,0.261-0.541,0.455-0.692,0.582
	c-0.155,0.13-0.426,0.292-0.807,0.485c-0.386,0.193-0.808,0.357-1.269,0.484c-2.305,0.648-2.691,0.97-1.152,0.97
	C73.433,65.969,74.972,65.257,75.432,63.963z"/>
<path fill="#59b9f9" d="M105.912,125.252c-0.324,0.648-1.11,1.055-2.353,1.217c-1.245,0.162-2.083-0.082-2.515-0.73
	c-0.218-0.434-1.191-0.434-2.92,0c-1.947,0.648-3.919,0.893-5.922,0.73c-2-0.162-3.488-0.625-4.461-1.379
	c-1.189-0.975-1.785-1.68-1.785-2.109c0-0.324-0.378-0.813-1.136-1.461c-0.865-0.539-0.946-1.08-0.244-1.623
	c0.705-0.539,3.707-1.404,9.005-2.596c3.351-0.863,5.488-1.484,6.408-1.865c0.918-0.377,1.379-0.893,1.379-1.541
	c0-5.947,1.541-16.116,4.624-30.502c3.083-14.384,5.57-25.229,7.463-32.529c1.891-7.301,3.595-13.709,5.111-19.226v-0.163
	l-2.758,0.649c-1.947,0.434-4.274,0.649-6.977,0.649c-1.731,0-2.948-0.134-3.65-0.405c-0.705-0.269-1.488-0.893-2.353-1.866
	c-1.191-1.514-1.678-2.487-1.46-2.92c0.864-1.298,4.92-2.703,12.168-4.218c4.218-0.756,6.814-1.623,7.788-2.596
	c0.974-0.864,2.596-1.513,4.867-1.947c2.163-0.325,4.163,0.056,6.003,1.136c1.08,0.758,2.19,1.217,3.326,1.379
	s3.055,0.244,5.76,0.244c9.085-0.325,13.628-0.053,13.628,0.811c0,0.434-0.811,0.649-2.433,0.649
	c-1.298,0.109-1.947,0.218-1.947,0.325c0,0.218,0.269,0.542,0.812,0.973c0.973,0.649,1.136,0.974,0.486,0.974
	c-0.218,0.109-0.705,0.162-1.46,0.162c-1.407,0-2.109,0.218-2.109,0.649c0.216,0.218,0.053,0.434-0.486,0.649l-1.785,0.487
	c-7.463,1.191-11.304,1.947-11.52,2.271c-0.434,0.542-2.814,9.628-7.139,27.257c-2.165,8.761-3.84,15.035-5.029,18.82
	c-0.867,2.92-1.46,5.086-1.785,6.49c-0.325,1.406-0.624,2.703-0.893,3.893c-0.271,1.191-0.948,3.246-2.028,6.166
	c-0.867,2.488-1.678,4.814-2.434,6.976l-2.109,6.977c0,0.217-0.38,1.297-1.136,3.245c-0.973,1.947-1.379,3.301-1.217,4.057
	c0.163,0.758,1.161,1.297,3.001,1.621c0.325,0,0.54,0.057,0.649,0.162c0.106,0.109,0.297,0.219,0.568,0.326
	c0.269,0.107,0.73,0.217,1.379,0.324l2.271,0.486l-0.163,0.162c-0.434,0.219-0.542,0.381-0.324,0.486
	c0.431,0.434,0.649,1.164,0.649,2.191c0,1.029-0.271,1.813-0.812,2.352l0.163,0.324c0.54,0.543,0.162,0.92-1.136,1.137l-2.434,0.324
	c-2.705,0.215-4.652,0.406-5.841,0.568c-1.191,0.162-1.894,0.324-2.109,0.486C106.343,124.521,106.128,124.818,105.912,125.252z
	 M121.65,144.152c-0.218,0.27-0.325,0.406-0.325,0.406s-0.109-0.057-0.324-0.162c-0.218-0.109-0.434,0.025-0.649,0.404
	c-0.218,0.379-0.38,0.893-0.487,1.543c-0.218,1.945-0.812,2.92-1.785,2.92c-1.298,0-1.678-2.328-1.136-6.977
	c0.324-2.705,2.215-9.979,5.678-21.822c3.46-11.844,7.058-25.254,10.789-40.236c3.732-14.979,6.028-27.877,6.896-38.694
	c0.325-3.136,0.864-5.245,1.623-6.327c0.973-1.405,2.839-1.838,5.597-1.298c2.758,0.542,5.488,1.947,8.193,4.218l2.758,2.271
	l11.844,38.613c0.324,1.299,0.73,2.625,1.217,3.975c0.486,1.355,0.918,2.625,1.299,3.814c0.377,1.191,0.783,2.352,1.217,3.488
	c0.43,1.135,0.836,2.217,1.217,3.244c0.377,1.029,0.729,1.975,1.055,2.839c0.324,0.865,0.621,1.621,0.892,2.271
	c0.269,0.648,0.513,1.217,0.729,1.703s0.432,0.947,0.649,1.379c0-0.324,0.756-4.137,2.271-11.437
	c1.514-7.303,3.271-15.414,5.272-24.337c2-8.923,3.542-15.169,4.625-18.739c4.324-14.926,7.949-25.472,10.869-31.637
	c1.299-2.703,3.299-5.813,6.004-9.329c2.701-3.514,4.381-5.111,5.029-4.786c0.215,0.109,0.377,0.109,0.486,0
	c0.107-0.106,0.162-0.269,0.162-0.487c0.217-0.431,0.594-0.702,1.137-0.811c0.324,0,0.539-0.053,0.648-0.163l2.271,2.271
	c-0.324-0.324-0.623-0.568-0.893-0.73c-0.271-0.162-0.623-0.35-1.055-0.568c0,0.218-0.219,0.649-0.648,1.298
	c-0.648,1.623-0.813,2.38-0.486,2.271c0.215-0.106,0.324-0.053,0.324,0.162c-0.109,1.623-0.92,3.569-2.434,5.841
	c-0.434,0.649-0.867,0.649-1.299,0c-0.324-0.324-0.486-0.324-0.486,0c0,0.218,0.053,0.487,0.162,0.811
	c0.324,1.192,0,1.841-0.973,1.947c-0.975,0-1.084,0.162-0.326,0.487c0.541,0.218,0.785,0.486,0.73,0.811
	c-0.055,0.324-0.217,0.758-0.486,1.298c-0.271,0.542-0.596,1.083-0.973,1.623c-0.381,0.542-0.678,1.083-0.893,1.623
	c-0.219,0.542-0.271,1.029-0.162,1.46c0.105,0.542-0.057,0.811-0.486,0.811c-0.219,0-0.406,0.19-0.568,0.568
	c-0.162,0.38-0.324,0.893-0.486,1.542s-0.326,1.272-0.488,1.866c-0.162,0.596-0.324,1.136-0.486,1.623s-0.299,0.786-0.404,0.892
	c-0.219,0.218-0.813,1.785-1.785,4.705c-0.758,2.596-1.029,4.003-0.813,4.218c0.217,0.109,0.488-0.106,0.813-0.649
	c0.539-0.973,1.188-2.54,1.947-4.705c1.188-3.245,2.215-5.65,3.082-7.22c0.863-1.566,1.623-3.055,2.271-4.461
	c0.648-1.623,1.189-2.541,1.623-2.758c0.215-0.215,0.324-0.162,0.324,0.162c0.105,0.542-0.109,1.191-0.65,1.947
	c-0.758,1.191-2.217,4.705-4.379,10.545c-2.166,5.841-2.814,8.817-1.947,8.923c0.43,0,0.215,0.271-0.65,0.812
	c-0.758,0.649-0.92,1.245-0.486,1.785c0.541,0.433,0.27,1.354-0.811,2.758c-1.191,1.407-1.516,2.705-0.975,3.894
	c0.107,0.434,0.379,0.487,0.813,0.162c0.756-0.54,1.242-0.053,1.459,1.46c0.107,0.974,0,1.841-0.324,2.596
	c-0.648,1.298-0.867,2.271-0.648,2.92c0,0.218-1.299,5.544-3.895,15.981c-2.596,10.438-4.002,16.036-4.217,16.792
	c-0.434,0.867-0.65,2.027-0.65,3.488s-0.162,2.352-0.486,2.678c-0.542,0.432-0.705,0.811-0.486,1.135
	c0.106,0.219-0.109,1.785-0.648,4.705c-0.543,2.92-1.083,5.869-1.623,8.842c-0.543,2.977-0.758,4.57-0.648,4.787
	c0.105,0.434-0.271,1.947-1.137,4.543c-0.867,2.488-2.271,4.002-4.218,4.543c-4.218,1.078-7.005,1.432-8.355,1.053
	c-1.354-0.379-2.408-1.053-3.164-2.027c-0.758-0.973-1.354-1.459-1.784-1.459c-0.543,0-2.867-5.408-6.977-16.225
	c-4.111-10.814-6.87-18.441-8.274-22.876l-6.003-18.658l-2.109,8.437c-0.867,2.921-2.083,7.735-3.65,14.44
	c-1.569,6.707-3.001,12.953-4.299,18.738c-1.298,5.788-2.596,11.088-3.894,15.901c-1.298,4.811-2.165,7.488-2.596,8.031
	c-0.867,1.08-1.354,1.404-1.46,0.973c-0.109-0.217-0.434,0.107-0.974,0.975c-0.218,0.324-0.434,0.648-0.649,0.973
	c-0.867,1.729-1.569,2.434-2.109,2.109c-0.218-0.109-0.38-0.109-0.487,0c-0.109,0.105-0.218,0.244-0.324,0.406
	c-0.109,0.162-0.244,0.377-0.406,0.648c-0.162,0.268-0.243,0.621-0.243,1.055c-0.434,1.514-0.812,2.324-1.136,2.434
	c-0.325,0.105-0.434-0.381-0.325-1.461l-0.162-0.486c-0.218,0.107-0.487,0.486-0.811,1.135c-0.867,1.73-1.46,2.813-1.785,3.246
	c-0.542,0.756-0.974,1.785-1.298,3.082C122.027,143.477,121.865,143.881,121.65,144.152z M186.547,75.119
	c-0.109,0.217-0.486,1.703-1.136,4.461s-1.272,5.49-1.866,8.193c-0.596,2.705-0.893,4.164-0.893,4.381
	c0.217,0.434,0.325,0.705,0.325,0.811l0.324-0.811c0-1.08,0.702-4.596,2.109-10.547l1.298-6.65L186.547,75.119z M201.797,37.803
	c-0.324,0-0.648,0.568-0.973,1.704s-0.434,2.028-0.324,2.677l0.324,0.487c0.432-0.755,0.756-1.513,0.973-2.271
	c0.217-0.755,0.324-1.379,0.324-1.866S202.014,37.803,201.797,37.803z"/>
<path fill="#59b9f9" d="M272.957,46.469c0-0.973,0.755-1.351,2.271-1.136c0.864,0.109,1.136,0.38,0.811,0.812
	c-0.218,0.324-0.108,0.486,0.325,0.486c0.215,0,0.702-0.162,1.46-0.486c1.514-0.54,2.434-0.487,2.758,0.162
	c0.216,0.434,0.649,0.542,1.298,0.324c0.649-0.215,1.08-0.053,1.298,0.487c0.432,0.542,1.027,0.812,1.785,0.812
	c0.648,0,0.54-0.269-0.324-0.812c-0.867-0.54-0.649-0.864,0.648-0.973c3.894-0.106,8.274,0.596,13.142,2.109l1.785,0.812
	c0.755,0.433,1.161,0.73,1.217,0.892c0.053,0.162-0.3,0.461-1.055,0.893c-0.974,0.542-1.298,1.135-0.974,1.785
	c0.216,0.324,0.106,0.486-0.324,0.486l-1.298-0.324c-1.517-0.325-2.434-0.216-2.759,0.324c-0.108,0.218-0.515,0.38-1.217,0.487
	c-0.704,0.109-1.516,0.162-2.434,0.162c-0.92,0-1.84-0.025-2.758-0.081c-0.92-0.053-1.76-0.081-2.515-0.081
	c-0.758,0-1.191,0-1.298,0c0.54,4.867,0.811,7.41,0.811,7.625c-0.218,0-1.054,0.271-2.515,0.811c-1.46,0.542-2.786,1.029-3.975,1.46
	c-1.191,0.434-2.408,0.948-3.65,1.541c-1.245,0.596-2.084,1.055-2.515,1.379c-0.109,0-3.625,2.002-10.546,6.003
	c-6.923,4.003-10.926,6.599-12.006,7.788c-0.324,0.542-4.165,3.625-11.52,9.248c-7.356,5.625-14.467,11.25-21.335,16.873
	c-6.87,5.625-10.302,8.979-10.302,10.059c0,0.867,2,1.517,6.003,1.947c4,0.434,8.437,0.542,13.304,0.324
	c6.056-0.431,14.168-1.242,24.336-2.434c10.166-1.188,16.277-2.053,18.334-2.596c5.082-1.298,7.975-2.216,8.68-2.758
	c0.702-0.54,1.784-0.865,3.245-0.974c1.46-0.106,2.216,0.081,2.271,0.567c0.053,0.487-0.677,0.73-2.19,0.73
	c-0.109,0-0.324,0-0.649,0c-0.542,0.109-0.758,0.218-0.648,0.324c0.755,0.325,1.107,0.893,1.055,1.704
	c-0.057,0.811-0.515,1.217-1.38,1.217c-0.866,0-1.298,0.271-1.298,0.811c0,0.325-1.354,0.434-4.056,0.325
	c-0.758-0.106-1.083-0.054-0.974,0.162c0.106,0.108,0.216,0.218,0.324,0.324c0.865,0.543,0.594,1.082-0.811,1.622
	c-2.381,0.759-4.599,1.136-6.652,1.136c-1.84,0.325-2.705,0.705-2.596,1.136c0.431,0.649,0.162,0.867-0.812,0.649
	c-0.108,0-0.271,0-0.486,0c-1.083-0.324-2.733-0.216-4.948,0.324c-2.219,0.543-3.326,1.083-3.326,1.623
	c0,0.433-0.38,0.704-1.136,0.811l-5.841,1.46c-0.324,0.109-0.324,0.219,0,0.325h0.486c1.189,0.108,1.838,0.324,1.947,0.648
	c0.106,0.325-0.271,0.921-1.136,1.785c-1.84,1.84-9.142,3.082-21.902,3.731c-6.599,0.324-11.925-0.025-15.981-1.055
	c-4.056-1.026-7.438-2.893-10.14-5.598c-2.489-2.486-4.057-4.543-4.705-6.165c-0.543-1.514-0.812-3.569-0.812-6.165
	s0.324-4.434,0.974-5.517c0.756-1.08,2.353-2.729,4.786-4.948c2.434-2.216,4.758-4.243,6.977-6.084
	c2.216-1.838,3.326-2.812,3.326-2.92c0.215-0.216,1.323-0.999,3.325-2.353c2.001-1.352,3.895-2.703,5.679-4.057
	c1.785-1.351,2.677-2.19,2.677-2.515c0-0.648,0.378-0.974,1.136-0.974c0.649,0,1.838-0.702,3.569-2.109
	c1.729-1.404,3.407-2.73,5.03-3.975c1.622-1.242,2.648-1.704,3.082-1.379c0.324,0.218,0.568,0.028,0.73-0.568
	c0.162-0.593,0.459-0.893,0.893-0.893c0.648,0,1.566-0.54,2.758-1.622c1.188-1.08,1.784-1.947,1.784-2.596
	c0-0.755,0.378-1.136,1.136-1.136c0.54,0,1.785-0.755,3.731-2.271c1.947-1.514,3.299-2.271,4.057-2.271
	c0.54,0,0.945-0.106,1.217-0.325c0.269-0.215,0.405-0.486,0.405-0.811c-0.108-0.54,0.325-0.864,1.298-0.974
	c0.216,0,0.487-0.053,0.812-0.162c0.649,0,1.026-0.053,1.136-0.162c0.106-0.106,0-0.269-0.324-0.487
	c-0.434-0.54-4.761-0.512-12.979,0.081c-8.222,0.596-14.982,1.379-20.28,2.353c-2.814,0.434-4.786,0.649-5.922,0.649
	s-2.246-0.215-3.326-0.649c-1.191-0.649-2.408-1.919-3.65-3.813c-1.245-1.891-1.65-3.055-1.217-3.488
	c0.324-0.216,0.216-1.189-0.324-2.92c-0.109-0.431-0.163-0.836-0.163-1.217c0-0.378,0.025-0.73,0.082-1.055
	c0.053-0.324,0.188-0.593,0.405-0.811c0.216-0.216,0.459-0.406,0.73-0.568c0.269-0.163,0.621-0.325,1.054-0.487
	c0.432-0.162,0.893-0.297,1.38-0.406c0.486-0.106,1.054-0.215,1.703-0.324c0.649-0.106,1.271-0.188,1.866-0.244
	c0.593-0.053,1.323-0.162,2.189-0.324c0.865-0.163,1.676-0.35,2.434-0.568h1.461c-0.109,0.109-0.812,0.487-2.109,1.136
	c-0.974,0.433-1.785,0.811-2.434,1.136l3.082-0.325c5.299-0.649,10.438-1.161,15.413-1.542c4.975-0.377,8.949-0.621,11.925-0.73
	c2.974-0.106,5.598-0.188,7.869-0.243c2.271-0.053,3.813-0.134,4.624-0.244c0.812-0.106,1.161-0.324,1.055-0.649
	c-0.218-0.324-0.3-0.512-0.243-0.568c0.053-0.053,0.243,0.028,0.567,0.244c0.649,0.324,1.323,0.596,2.028,0.811
	c0.702,0.218,1.323,0.271,1.865,0.162c0.54-0.106,0.812-0.324,0.812-0.649c0-0.431,0.216-0.512,0.649-0.243
	c0.431,0.271,0.864,0.568,1.298,0.892c0.431,0.325,0.648,0.218,0.648-0.324c0-0.215,0.135-0.406,0.406-0.568
	c0.269-0.162,0.621-0.243,1.054-0.243c0.432,0,0.865,0.028,1.299,0.081c0.431,0.056,0.836,0.19,1.217,0.405
	c0.377,0.218,0.621,0.434,0.729,0.649C272.686,47.281,272.957,47.227,272.957,46.469z M291.939,52.148
	c0.755-0.216,0.593-0.378-0.487-0.487c-0.866,0-1.298,0.109-1.298,0.324C290.37,52.419,290.966,52.472,291.939,52.148z"/>
</svg>
